<?xml version="1.0" encoding="iso-8859-1"?>
<!-- Generator: Adobe Illustrator 16.0.0, SVG Export Plug-In . SVG Version: 6.00 Build 0)  -->
<!DOCTYPE svg PUBLIC "-//W3C//DTD SVG 1.1//EN" "http://www.w3.org/Graphics/SVG/1.1/DTD/svg11.dtd">
<svg version="1.1" id="Capa_1" xmlns="http://www.w3.org/2000/svg" xmlns:xlink="http://www.w3.org/1999/xlink" x="0px" y="0px"
	 width="40px" height="40px" viewBox="0 0 606.877 606.877" fill="rgb(106, 148, 240)">
<g>
	<g>
		<g>
			<path d="M58.64,280.154h162.654c32.058,0,58.14-26.082,58.14-58.14V59.36c0-32.059-26.082-58.14-58.14-58.14H58.64
				C26.582,1.22,0.5,27.301,0.5,59.36v162.654C0.5,254.072,26.582,280.154,58.64,280.154z M43.34,59.36c0-8.45,6.85-15.3,15.3-15.3
				h162.654c8.45,0,15.3,6.85,15.3,15.3v162.654c0,8.45-6.85,15.3-15.3,15.3H58.64c-8.45,0-15.3-6.85-15.3-15.3V59.36z"/>
		</g>
		<g>
			<path d="M548.238,1.22H385.584c-32.059,0-58.141,26.082-58.141,58.14v162.654c0,32.058,26.082,58.14,58.141,58.14h162.654
				c32.059,0,58.139-26.082,58.139-58.14V59.36C606.377,27.301,580.297,1.22,548.238,1.22z M563.537,222.014
				c0,8.45-6.85,15.3-15.299,15.3H385.584c-8.449,0-15.301-6.85-15.301-15.3V59.36c0-8.45,6.852-15.3,15.301-15.3h162.654
				c8.449,0,15.299,6.85,15.299,15.3V222.014z"/>
		</g>
		<g>
			<path d="M58.64,605.657h162.654c32.058,0,58.14-26.08,58.14-58.139V384.864c0-32.059-26.082-58.141-58.14-58.141H58.64
				c-32.058,0-58.14,26.082-58.14,58.141v162.654C0.5,579.577,26.582,605.657,58.64,605.657z M43.34,384.864
				c0-8.449,6.85-15.301,15.3-15.301h162.654c8.45,0,15.3,6.852,15.3,15.301v162.654c0,8.449-6.85,15.299-15.3,15.299H58.64
				c-8.45,0-15.3-6.85-15.3-15.299V384.864z"/>
		</g>
		<g>
			<path d="M548.238,326.724H385.584c-32.059,0-58.141,26.082-58.141,58.141v162.654c0,32.059,26.082,58.139,58.141,58.139h162.654
				c32.059,0,58.139-26.08,58.139-58.139V384.864C606.377,352.806,580.297,326.724,548.238,326.724z M563.537,547.519
				c0,8.449-6.85,15.299-15.299,15.299H385.584c-8.449,0-15.301-6.85-15.301-15.299V384.864c0-8.449,6.852-15.301,15.301-15.301
				h162.654c8.449,0,15.299,6.852,15.299,15.301V547.519z"/>
		</g>
	</g>
</g>
<g>
</g>
<g>
</g>
<g>
</g>
<g>
</g>
<g>
</g>
<g>
</g>
<g>
</g>
<g>
</g>
<g>
</g>
<g>
</g>
<g>
</g>
<g>
</g>
<g>
</g>
<g>
</g>
<g>
</g>
</svg>
